<svg width="184.022583" height="40.000000" viewBox="0 0 184.023 40" fill="none" xmlns="http://www.w3.org/2000/svg" xmlns:xlink="http://www.w3.org/1999/xlink">
	<desc>
			Created with Pixso.
	</desc>
	<defs/>
	<path id="Subtract" d="M20 0C26.85 0 32.9 3.44 36.5 8.7L22.5 22.71L14.26 14.48C13.29 13.5 11.7 13.5 10.73 14.48L0.54 24.66C0.18 23.16 0 21.6 0 20C0 8.95 8.95 0 20 0ZM24.26 28.01L38.88 13.4C39.6 15.46 40 17.68 40 20C40 31.04 31.04 40 20 40C12.49 40 5.95 35.86 2.53 29.75L12.5 19.78L20.73 28.01C21.7 28.99 23.29 28.99 24.26 28.01Z" fill="#EF2A82" fill-opacity="1.000000" fill-rule="evenodd"/>
	<path id="ANALYTICS" d="M156.35 22.66C156.3 23.76 156 24.73 155.46 25.57Q155.28 25.86 155.06 26.11Q154.32 26.98 153.18 27.52C152.21 27.98 151.09 28.21 149.84 28.21C147.77 28.21 146.13 27.54 144.94 26.19C143.75 24.84 143.16 22.93 143.16 20.47L143.16 19.69Q143.16 17.38 143.96 15.65Q144.55 14.38 145.51 13.54Q145.87 13.22 146.29 12.96Q146.53 12.81 146.79 12.67Q148.13 12.01 149.79 12.01C151.71 12.01 153.24 12.51 154.4 13.52Q154.84 13.9 155.18 14.35Q156.21 15.69 156.38 17.68L152.6 17.68C152.57 16.72 152.33 16.03 151.87 15.61C151.42 15.19 150.72 14.99 149.79 14.99C148.85 14.99 148.15 15.34 147.71 16.05C147.27 16.75 147.04 17.88 147.02 19.43L147.02 20.55C147.02 22.23 147.23 23.43 147.65 24.15C148.08 24.87 148.8 25.24 149.84 25.24C150.71 25.24 151.38 25.03 151.84 24.62C152.3 24.21 152.55 23.55 152.57 22.66L156.35 22.66ZM166.28 23.81C166.28 23.25 166.08 22.82 165.68 22.51C165.29 22.2 164.6 21.88 163.61 21.54C162.63 21.21 161.82 20.89 161.19 20.58C159.15 19.58 158.13 18.2 158.13 16.45Q158.13 15.65 158.41 14.96Q158.59 14.53 158.88 14.14Q159.65 13.13 161.05 12.58C161.98 12.21 163.03 12.02 164.19 12.02C165.32 12.02 166.33 12.22 167.23 12.63C168.13 13.03 168.83 13.61 169.33 14.36C169.83 15.1 170.08 15.95 170.08 16.91L166.29 16.91C166.29 16.27 166.09 15.77 165.69 15.42C165.3 15.06 164.77 14.89 164.1 14.89C163.42 14.89 162.89 15.04 162.49 15.34C162.1 15.64 161.9 16.02 161.9 16.48Q161.9 16.57 161.92 16.66Q162 17.16 162.55 17.58C162.99 17.91 163.75 18.25 164.84 18.6C165.93 18.95 166.82 19.32 167.52 19.73C169.22 20.71 170.08 22.06 170.08 23.78Q170.08 24.96 169.57 25.85Q169.19 26.52 168.52 27.03C167.48 27.82 166.05 28.21 164.24 28.21C162.97 28.21 161.81 27.98 160.77 27.53C159.74 27.07 158.96 26.44 158.43 25.65Q158.24 25.36 158.1 25.04L158.1 25.04Q157.65 24.07 157.65 22.89L161.46 22.89C161.46 23.73 161.68 24.35 162.11 24.76C162.55 25.16 163.26 25.35 164.24 25.35C164.87 25.35 165.36 25.22 165.73 24.95C166.09 24.68 166.28 24.3 166.28 23.81ZM62.8 25.05L57.6 25.05L56.69 28L52.63 28L58.41 12.24L61.98 12.24L67.8 28L63.72 28L62.8 25.05ZM82.12 28L78.35 28L72.76 18.19L72.76 28L68.96 28L68.96 12.24L72.76 12.24L78.34 22.04L78.34 12.24L82.12 12.24L82.12 28ZM93.67 25.05L88.47 25.05L87.56 28L83.5 28L89.28 12.24L92.85 12.24L98.67 28L94.59 28L93.67 25.05ZM103.63 25.07L110.24 25.07L110.24 28L99.83 28L99.83 12.24L103.63 12.24L103.63 25.07ZM114.58 19.08L117.48 12.24L121.59 12.24L116.51 22.33L116.51 28L112.66 28L112.66 22.33L107.59 12.24L111.67 12.24L114.58 19.08ZM135.3 15.17L130.57 15.17L130.57 28L126.77 28L126.77 15.17L122.13 15.17L122.13 12.24L135.3 12.24L135.3 15.17ZM140.96 28L137.17 28L137.17 12.24L140.96 12.24L140.96 28ZM58.51 22.12L61.89 22.12L60.2 16.65L58.51 22.12ZM89.38 22.12L92.76 22.12L91.06 16.65L89.38 22.12Z" fill="#FFFFFF" fill-opacity="1.000000" fill-rule="evenodd"/>
</svg>
